<?xml version="1.0" encoding="UTF-8" standalone="no"?>
<svg
   xmlns:dc="http://purl.org/dc/elements/1.1/"
   xmlns:cc="http://creativecommons.org/ns#"
   xmlns:rdf="http://www.w3.org/1999/02/22-rdf-syntax-ns#"
   xmlns:svg="http://www.w3.org/2000/svg"
   xmlns="http://www.w3.org/2000/svg"
   xmlns:sodipodi="http://sodipodi.sourceforge.net/DTD/sodipodi-0.dtd"
   xmlns:inkscape="http://www.inkscape.org/namespaces/inkscape"
   height="32px"
   version="1.1"
   viewBox="0 0 32 32"
   width="32px"
   id="svg11"
   sodipodi:docname="feed-basket-empty.svg"
   inkscape:version="0.92.2 (5c3e80d, 2017-08-06)">
  <metadata
     id="metadata15">
    <rdf:RDF>
      <cc:Work
         rdf:about="">
        <dc:format>image/svg+xml</dc:format>
        <dc:type
           rdf:resource="http://purl.org/dc/dcmitype/StillImage" />
        <dc:title></dc:title>
      </cc:Work>
    </rdf:RDF>
  </metadata>
  <sodipodi:namedview
     pagecolor="#ffffff"
     bordercolor="#666666"
     borderopacity="1"
     objecttolerance="10"
     gridtolerance="10"
     guidetolerance="10"
     inkscape:pageopacity="0"
     inkscape:pageshadow="2"
     inkscape:window-width="1680"
     inkscape:window-height="987"
     id="namedview13"
     showgrid="false"
     inkscape:zoom="14.75"
     inkscape:cx="0.12268685"
     inkscape:cy="21.170802"
     inkscape:window-x="1672"
     inkscape:window-y="-7"
     inkscape:window-maximized="1"
     inkscape:current-layer="svg11" />
  <desc
     id="desc4" />
  <defs
     id="defs6" />
  <g
     id="Page-1"
     transform="matrix(1.2616949,0,0,1.2616949,-4.8264407,-4.0176272)"
     style="fill-rule:evenodd;stroke:#000000;stroke-width:0.39629232;stroke-opacity:1;stroke-miterlimit:4;stroke-dasharray:none;stroke-dashoffset:0;fill-opacity:1;fill:#4d4d4d">
    <g
       id="icon-91-inbox-document-text"
       style="stroke:#000000;stroke-opacity:1;stroke-width:0.39629232;stroke-miterlimit:4;stroke-dasharray:none;stroke-dashoffset:0;fill-opacity:1;fill:#4d4d4d">
      <path
         d="M 29,20.5 V 19 L 26,14.2 V 11 11 L 20,4 H 9.0027601 C 7.8966662,4 7,4.8970262 7,6.0049466 V 14.2 v 0 L 4,19 v 9 H 29 Z M 7,19 V 16.159961 L 5.2249756,19 Z M 27.775024,19 26,16.159961 V 19 Z M 8,19 V 6.0030706 C 8,5.4389178 8.4457352,5 8.9955775,5 H 19 V 9.994081 C 19,11.113445 19.894496,12 20.997913,12 H 25 v 7 z M 20,5.5 V 9.9912152 C 20,10.548352 20.450651,11 20.996739,11 h 3.703212 z M 10,15 v 1 h 13 v -1 z m 0,-8 v 1 h 7 V 7 Z m 0,4 v 1 h 7 v -1 z m 2,10 c 0,1.104569 0.895858,2 1.997392,2 h 5.005216 C 20.105737,23 21,22.11227 21,21 v -1 h -9 z"
         id="inbox-document-text"
         inkscape:connector-curvature="0"
         style="stroke:#000000;stroke-opacity:1;stroke-width:0.39629232;stroke-miterlimit:4;stroke-dasharray:none;stroke-dashoffset:0;fill-opacity:1;fill:#4d4d4d" />
    </g>
  </g>
</svg>
