<?xml version="1.0" encoding="UTF-8" standalone="no"?>
<svg
   xmlns:dc="http://purl.org/dc/elements/1.1/"
   xmlns:cc="http://creativecommons.org/ns#"
   xmlns:rdf="http://www.w3.org/1999/02/22-rdf-syntax-ns#"
   xmlns:svg="http://www.w3.org/2000/svg"
   xmlns="http://www.w3.org/2000/svg"
   xmlns:sodipodi="http://sodipodi.sourceforge.net/DTD/sodipodi-0.dtd"
   xmlns:inkscape="http://www.inkscape.org/namespaces/inkscape"
   height="32px"
   version="1.1"
   viewBox="0 0 32 32"
   width="32px"
   id="svg11"
   sodipodi:docname="feedbasket.svg"
   inkscape:version="0.92.2 (5c3e80d, 2017-08-06)">
  <metadata
     id="metadata15">
    <rdf:RDF>
      <cc:Work
         rdf:about="">
        <dc:format>image/svg+xml</dc:format>
        <dc:type
           rdf:resource="http://purl.org/dc/dcmitype/StillImage" />
        <dc:title></dc:title>
      </cc:Work>
    </rdf:RDF>
  </metadata>
  <sodipodi:namedview
     pagecolor="#ffffff"
     bordercolor="#666666"
     borderopacity="1"
     objecttolerance="10"
     gridtolerance="10"
     guidetolerance="10"
     inkscape:pageopacity="0"
     inkscape:pageshadow="2"
     inkscape:window-width="1680"
     inkscape:window-height="987"
     id="namedview13"
     showgrid="false"
     inkscape:zoom="14.75"
     inkscape:cx="11.139636"
     inkscape:cy="21.170802"
     inkscape:window-x="-8"
     inkscape:window-y="-8"
     inkscape:window-maximized="1"
     inkscape:current-layer="svg11" />
  <desc
     id="desc4" />
  <defs
     id="defs6" />
  <g
     id="Page-1"
     transform="matrix(1.2616949,0,0,1.2616949,-4.8264407,-4.0176272)"
     style="fill:none;fill-rule:evenodd;stroke:none;stroke-width:1">
    <g
       id="icon-91-inbox-document-text"
       style="fill:#929292">
      <path
         d="M 29,20.5 V 19 L 26,14.2 V 11 11 L 20,4 H 9.0027601 C 7.8966662,4 7,4.8970262 7,6.0049466 V 14.2 v 0 L 4,19 v 9 H 29 Z M 7,19 V 16.159961 L 5.2249756,19 Z M 27.775024,19 26,16.159961 V 19 Z M 8,19 V 6.0030706 C 8,5.4389178 8.4457352,5 8.9955775,5 H 19 V 9.994081 C 19,11.113445 19.894496,12 20.997913,12 H 25 v 7 z M 20,5.5 V 9.9912152 C 20,10.548352 20.450651,11 20.996739,11 h 3.703212 z M 10,15 v 1 h 13 v -1 z m 0,-8 v 1 h 7 V 7 Z m 0,4 v 1 h 7 v -1 z m 2,10 c 0,1.104569 0.895858,2 1.997392,2 h 5.005216 C 20.105737,23 21,22.11227 21,21 v -1 h -9 z"
         id="inbox-document-text"
         inkscape:connector-curvature="0" />
    </g>
  </g>
  <path
     style="fill:#333333;stroke-width:0.06779661"
     d="M 0.237941,25.629147 V 19.981638 L 2.1362461,16.944916 4.0345512,13.908193 V 8.5645668 c 0,-5.040164 0.00724,-5.3668919 0.1275013,-5.7532898 0.2264326,-0.7275294 0.6867951,-1.224509 1.465719,-1.5823019 l 0.3389831,-0.1557093 7.2203394,-0.01399 7.220339,-0.01399 3.779608,4.4207695 3.779608,4.4207694 5.3e-5,2.0244033 5.3e-5,2.024403 1.898305,3.03594 1.898305,3.03594 v 5.634572 5.634573 H 16.000653 0.237941 Z m 19.79661,-0.753937 c 0.735517,-0.314036 1.230002,-0.816613 1.495937,-1.520416 0.117989,-0.312259 0.146681,-0.54643 0.154942,-1.264579 l 0.01014,-0.881356 -5.719569,-0.01734 -5.719569,-0.01734 0.03239,0.932591 c 0.02172,0.625331 0.06916,1.033105 0.144012,1.237674 0.160757,0.439367 0.566879,0.944352 0.993997,1.235966 0.661224,0.45145 0.693935,0.454499 4.70942,0.438958 3.375459,-0.01306 3.61171,-0.0218 3.898305,-0.144166 z M 4.0345512,18.158012 c 0,-0.988136 -0.013018,-1.796611 -0.028928,-1.796611 -0.01591,0 -0.3867865,0.572034 -0.8241691,1.271187 -0.4373825,0.699152 -0.943218,1.507627 -1.1240789,1.79661 l -0.3288379,0.525424 h 1.153007 1.1530071 z M 26.746416,15.516058 v -4.438564 l -2.865979,-0.01906 -2.865977,-0.01906 -0.452488,-0.22283 C 19.847075,10.464481 19.372167,9.8365099 19.222002,9.0446936 19.18153,8.8312875 19.153195,7.3589915 19.153195,5.4694732 V 2.257069 L 12.622792,2.2753369 6.0923881,2.2936048 5.8174458,2.475572 C 5.6518468,2.5851716 5.4853123,2.7756806 5.3986969,2.9546042 L 5.2548902,3.2516691 v 8.3514759 8.351477 H 16.000653 26.746416 Z m 3.457627,4.4044 c 0,-0.03212 -1.945956,-3.166913 -2.145036,-3.455498 -0.07884,-0.114287 -0.09225,0.129663 -0.09225,1.677966 v 1.811696 h 1.118644 c 0.615254,0 1.118644,-0.01537 1.118644,-0.03416 z M 26.33922,9.869876 c -5.43e-4,-0.064965 -5.828124,-6.8903638 -5.909891,-6.9217889 -0.03589,-0.013795 -0.05302,1.2329967 -0.0415,3.0220008 l 0.01961,3.0454843 0.186151,0.2811939 c 0.189216,0.2858217 0.464093,0.4712888 0.830798,0.5605627 0.270579,0.065872 4.915371,0.07773 4.914838,0.012547 z"
     id="path305"
     inkscape:connector-curvature="0" />
  <path
     style="fill:#333333;stroke-width:0.06779661"
     d="m 7.8311613,15.547842 v -0.610169 h 8.1694917 8.169491 v 0.610169 0.61017 H 16.000653 7.8311613 Z"
     id="path307"
     inkscape:connector-curvature="0" />
  <path
     style="fill:#333333;stroke-width:0.06779661"
     d="M 7.8311613,10.496995 V 9.9207234 h 4.3728817 4.372881 v 0.5762716 0.576271 H 12.204043 7.8311613 Z"
     id="path309"
     inkscape:connector-curvature="0" />
  <path
     style="fill:#333333;stroke-width:0.06779661"
     d="M 7.8311613,5.4461471 V 4.8359777 h 4.3728817 4.372881 V 5.4461471 6.0563166 H 12.204043 7.8311613 Z"
     id="path311"
     inkscape:connector-curvature="0" />
</svg>
